<svg xmlns="http://www.w3.org/2000/svg" width="205.495" height="45.544" viewBox="0 0 205.495 45.544">
  <g>
    <path fill="rgb(20,105,55)" fill-rule="evenodd" d="M119.01586914 39.62131337h2.60650635c4.61560058 0 3.109375-4.02001953 2.00585937-6.96533203-.22131347-.59082031-.4263916-1.1381836-.5626831-1.60107422l-1.35418701-4.05419921c-.28948975-.75195313-.3237915-1.23095704-.61328125-1.98291016l-5.33953858-16.29345703c2.90026856 0 5.03826904.21533203 7.81848145.21533203.16400146.70410156.50177002 1.44335937.7269287 2.3022461l4.48498536 16.49560546 5.17871094-16.88720703c.16619873-.28271484.64331054-.85888672.89312744-1.05517578 1.05297851-.83154297 3.4473877-.74951172 5.55999756-.6772461.56982422.01953126 1.11920166.03857422 1.61621093.03857422l-8.93243408 25.03564454c-.30810547.84033203-.58813476 1.65136718-.85595703 2.42626953-1.9510498 5.64941406-3.25061035 9.41259765-10.00006103 8.875l-3.45031739-.25488282c.02252198-.97705078.21765137-.85839843.21765137-1.94433593v-3.67285157zm26.2859497-5.19384765c-2.11975097-1.27050781-3.4824829-4.55761719-3.4824829-6.25830078l.00024414-1.94433594-.00024414-3.88916016c0-1.05175781.05889892-1.94482422.11590576-2.80908203.05603027-.84960937.11029053-1.67138672.10498047-2.58935547-.03295899-5.7368164-.2631836-7.37988281.30541992-7.73144531.31958008-.1977539.8914795.01220703 1.89257812.1328125l4.96533204.03271484c0 .75439454-.04656983 2.27001954-.1038208 4.13525391-.16253663 5.29003906-.41137696 13.39208984.07055664 14.91259766 1.11834716 3.5336914 6.33886718 3.60839843 8.28271484 1.04296875.00323486-.00439453.31201172-.48535157.3334961-.53320313.47045898-1.03027344.52655029-5.75927734.57568359-9.90527344.02850342-2.40185546.05462646-4.60742187.1576538-5.78564453.18444825-2.10986328 1.18695069-3.64990234 3.49749756-3.64990234.56555176 0 1.05114747-.00878906 1.46673584-.01660156 2.35931397-.04345703 2.4630127-.04541016 2.14123536 1.86279297-.18347168 1.09375-.15734864 4.10986328-.1404419 6.05761718.00402832.46484375.00750733.86865235.00750733 1.17138672h.21765136c0-1.73876953.34094239-2.7211914.98535157-4.20507812 1.21478271-2.7944336 5.3717041-4.59179688 8.0928955-4.91308594 4.8892212-.57666016 7.32849121-.10546875 11.11975098 2.4194336 2.02539062-2.75097657 10.74987793-3.6694336 16.35638428.36376952 1.83666992 1.32177735 2.3727417 2.96435547 2.87664795 4.91748047.5548706 2.15332032.3269043 10.72314453.18139648 16.1899414-.04736328 1.77978517-.0859375 3.23046876-.0859375 4.02441407h-1.73693848c-1.9128418 0-5.2130127-.3383789-5.2130127-2.80859375v-6.48242187c0-.98388672.04992677-2.06201172.10052491-3.15429688.12957764-2.7993164.26348877-5.69091797-.42755127-7.32324219-.69372558-1.63867187-3.24664307-2.9399414-5.65368652-2.17089843-.5671997.18017578-1.49682617.59326172-1.90209961.91748047-1.67028809 1.34033203-1.57714844 4.72949218-1.49151611 7.84375.01837158.66796875.03637695 1.32324218.03656005 1.94287109 0 3.60009766-.21765136 6.97265625-.21765136 10.80322266h-7.16766358c0-2.31494141.05371094-4.4975586.10772705-6.6953125.05505371-2.23828125.11047364-4.4921875.10992432-6.91650391 0-.55761719.0357666-1.16455078.07202148-1.77929688.09838868-1.66796875.20031739-3.39648437-.39904785-4.37646484-1.78948974-2.92236328-6.91778564-3.21679687-8.52178955.37792969-.64868164 1.45361328-.7076416 17.08691406-.7076416 19.17333984h-3.90924072c-1.44421387 0-1.87957764-.21582031-3.25732422-.21582031.02142334-.9321289.21228027-1.02929688.22625732-2.15234375l-.22625732-6.70605469c0 3.06445313-1.35205078 5.43115235-3.1897583 6.765625-2.11334229 1.53417969-5.01147461 2.30859375-7.6694336 2.30859375-4.04864502 0-5.78344726-.51757812-8.89709472-2.38427734z"/>
    <path fill="rgb(206,21,41)" fill-rule="evenodd" d="M7.16589355 35.41623525C7.20568848 43.45041494 7.20599365 43.51047353 0 43.51047353c0-1.15966797.05523682-2.10742187.11010742-3.04785156.05480957-.9399414.10913086-1.8725586.10754395-3.0024414-.00097657-.92822266-.0001831-1.85644532.00054931-2.78466798.00091553-1.16015625.00183106-2.3203125-.00054931-3.48095703-.00268555-1.10009765.05126953-2.02783203.10595703-2.96923828.05517578-.94970703.11120605-1.91308594.11065674-3.0805664 0-.91845704-.01367188-1.75341797-.02642823-2.53613282-.05255127-3.21240234-.0906372-5.54003906.89056397-9.13671875.57580566-2.11083984 2.27416992-4.25048828 4.31884766-5.20947265.39562988-.18457032.55755615-.24853516 1.02178955-.49609375.6583252-.34765625.24981689-.16845704 1.07006836-.44775391 3.69476318-1.26123047 7.9942627-1.4711914 11.62792968.10205078l1.83026123.9868164c1.62115479 1.08056641 2.45855713 2.0288086 3.28735352 3.86035157 1.12475586 2.48291016.96496582 2.57080078 1.60723877 5.3149414l.63043213-2.39892578c.29058838-1.3930664 1.07537842-2.99169921 1.92993164-4.12890625.10510254-.13867187.25732422-.32763671.39031982-.47558593.81054688-.9013672.82666016-1.13916016 1.75518799-1.7109375.4953003-.30517578.51568604-.35009766.90704346-.61035157 3.11901855-2.07226562 9.45892334-2.20166015 12.50933838-.49365234 1.86560058 1.04394531 3.0847168 1.9272461 4.31665039 3.70019531l1.12902832 2.1171875c1.8045044 3.76757813 1.58789062 11.36425782-.66693116 15.33251953-.35491943.62402344-.83843994 1.46240235-1.28338623 1.96484375-.21606445.24365235-.22595214.24804688-.24786376.25830079-.01782227.00830078-.04364014.02001953-.1939087.16601562l-1.37561035 1.22460938c-3.91784668 2.86621093-9.32165527 2.58886718-13.81634521.7080078-.84594727-.3540039-1.19976807-.69091796-1.81091309-1.22314452l-1.25878906-1.12451172c-.27233887-.3178711-.1040039-.1171875-.29162598-.35742188-.2380371-.30175781-.40637207-.54248047-.63043213-.88623047-.42352295-.65185546-.65515136-1.25976562-.97143554-2.05761718-.4642334-1.16992188-1.02069092-3.51025391-1.02069092-5.03466797h-.21661377c0 1.09863281-.0793457 1.5756836-.3538208 2.45654297l-.633667 2.17822265c-.22302245.63574219-.6776123 1.3149414-.96496581 1.84863282-.37420655.69335937-.6090088 1.078125-1.13330079 1.6821289-.98217773 1.13378906-1.73052978 1.79101563-3.09436035 2.53857422-3.52001953 1.92871094-8.64086914 1.24902344-11.03076172-1.14453125-.29699707-.29785156-.39996337-.51611328-.66046142-.85644531-.21234131-.27832031-.39672852-.48876953-.58972168-.70947266 0 .86376953-.05853272 1.50634766-.11553955 2.13134766-.055542.609375-.1095581 1.20263672-.10638428 1.96875l.00360107.77001953zm6.08215333-7.03027344c-.34417725 0-2.14331055-.4428711-2.45532227-.58154297-4.19012451-1.86328125-4.47747803-12.55859375-.1447754-14.97070312 1.54187013-.85839844 3.75592042-.76757813 5.31811524.1015625.18011475.10009765.86419678.6484375.97998047.75195312 1.43566895 1.28027344 2.06292725 4.38085938 2.12402344 6.5078125.09326172 3.296875-1.51074219 8.19091797-5.82202149 8.19091797zm19.76379394-6.69824219l-.0008545-.49121093c-.00665282-2.54882813-.01220702-4.671875 1.6713257-6.92138672.17010497-.22607422.16735839-.23730469.17175292-.24169922.00360108-.00390625.01208496-.0024414.12524414-.11132813.2133789-.20703125.58966065-.44384765.91992188-.5961914 1.85595703-.85839844 3.33776855-1.00927735 5.0982666-.01513672.30023193.16992187.10186767.0366211.39459228.25634766 3.50610352 2.6196289 2.88531495 10.78808593.86846924 13.2158203-2.84985351 3.42919923-6.5425415 1.98535157-7.77020263.3491211-.77838135-1.03808594-1.47851563-3.66552734-1.47851563-5.44433594z"/>
    <path fill="rgb(206,21,41)" fill-rule="evenodd" d="M67.10981269 9.15620591l-.21765577-1.29600189c-4.19443038 0-8.57863944.34133384-11.81667108 3.58400523l-.41493981.45120066c-3.80522327 4.15787273-3.4052942 10.49068196-3.4052942 16.49069071v6.26560914h7.16655743c0-4.29440626.22301675-7.96907829.21765577-12.09921765-.00964976-7.59041106 2.3599032-7.34614404 8.2526919-7.34614404 0 6.10774224-.43423935 13.59681983-.43423935 19.66082867h7.3842132c0-1.68960247-.41279542-9.93708116.39778468-10.8384158.22944993-.25600038.74195957-.51200075 1.12258912-.61226757 1.60400507 1.06880156 2.94853874 3.68000537 3.78270715 5.52747473l1.53538454 3.00907106c.35918563.7082677.50500427.85653458.82559085 1.55626893l.80629132 1.5744023c2.95175533 0 5.52824209.21546698 8.68693123.21546698l-2.6461795-4.7125402c-.0235883-.04160007-.05468199-.09706682-.0782703-.13866688l-1.59328311-2.95253763c-.07398152-.15040022-.17905672-.30186711-.32380317-.54186746l-2.37491393-4.11947267c-.54253113-.99413479-2.12616448-3.55200518-2.32237633-4.3872064l4.20944112-4.4544065c.03216588-.03093338.0793425-.07466677.11043618-.10560015l.5243038-.56000082c.44067252-.4800007.73016541-.73066773 1.17083793-1.2117351l1.2844907-1.31413525c.62294582-.65706762 2.05754394-1.98293622 2.25697238-2.7253373-2.17119671 0-4.3498988.0202667-6.51895111-.00320001-2.16690793-.0234667-2.15618597-.05333341-4.9235236 3.3130715l-5.71587637 6.19734237.21765576-14.47682111c0-.66240097-.45997204-1.6245357-.82880743-1.98293623-1.60078849-1.5573356-2.7759152-1.04106818-6.33775-1.04106818V9.1562059z"/>
    <path fill="rgb(20,105,55)" fill-rule="evenodd" d="M113.40618896 30.58225087c-2.64190673 3.72900391-5.54541015 5.36523438-10.46142578 5.36523438-2.43493652 0-5.55395507-.9663086-7.62756347-2.35107422-4.63623047-3.09521484-5.57543946-11.55908203-3.91784668-17.34375.3838501-1.33984375 1.34454345-3.43261719 2.14978027-4.34472656C96.7131958 8.318579 99.10418701 7.8600829 104.24749756 7.8600829c12.03753662 0 13.50213623 16.5908203 9.1586914 22.72216796zM98.98614502 16.02121572c-1.87524414 3.00390625-2.77270508 14.09277344 4.1751709 14.09277344 5.78875732 0 6.50604248-10.39208985 4.26409912-13.74804688-.83093262-1.2446289-1.86560059-2.45654297-3.82989502-2.45654297-2.05645752 0-3.55859375.42773438-4.609375 2.1118164z"/>
  </g>
</svg>
