<svg xmlns="http://www.w3.org/2000/svg" width="248" height="121" viewBox="0 0 248 121">
  <g>
    <path fill="rgb(20,105,55)" fill-rule="evenodd" d="M125.4696045 42c14.56866454 0 16.34069823 19.81274414 11.08337402 27.13354492-3.19696045 4.45202637-6.71063233 6.40625-12.66027832 6.40625-2.94689942 0-6.72045899-1.1541748-9.22998047-2.80700683-5.61132813-3.69555664-6.7479248-13.80407715-4.74151612-20.7109375.46484375-1.59887696 1.62695313-4.0979004 2.60070801-5.1875C116.35235596 42.54772949 119.24536132 42 125.4696045 42zm23.39263915 1.289917c-3.3637085 0-5.95166015-.25793458-9.46240234-.25793458l6.46350098 19.45654297.1776123.50463867c.20074463.63464356.2836914 1.14489746.56378174 1.86340332l1.63867187 4.84106446.0701294.22595214c.16125488.50195313.37878418 1.07458497.61102295 1.68615723 1.33563232 3.51672363 3.15863037 8.31677246-2.42767334 8.31677246h-3.1538086v4.38574219l-.00811767.38269043c-.04180908.89855957-.23126221.90197754-.25567627 1.93908691l4.76953125.3433838c7.65228271.37976073 9.20483398-4.05590821 11.50744629-10.63476563.14916992-.42614746.30145263-.86120606.45874023-1.30456543l11.38861084-31.4901123-.5133667-.00476075c-.4578247-.0078125-.94317627-.02416992-1.44146728-.04101562-2.55725098-.08630372-5.45629883-.18408204-6.73083496.80908203-.302063.23486328-.87969971.9222412-1.08068848 1.26013183l-6.26739502 20.16503907-5.42700195-19.6982422-.17718506-.59875487c-.25061035-.77783204-.54418946-1.47717286-.70343018-2.14953614zm22.32733155 7.71594237l.01696777 1.83422852c.00634766 1.09423828-.05895996 2.07434082-.12677002 3.0913086-.06884766 1.03234863-.13995361 2.09875488-.13995361 3.35437011v6.96655274l.01513671.3552246c.17095948 2.10375977 1.77685547 5.68579102 4.19976807 7.11767579 3.76763916 2.22839355 5.86627197 2.8474121 10.7666626 2.8474121 3.21655273 0 6.72436523-.92504882 9.28192139-2.75793456l.38616943-.29370118c1.89819336-1.53173828 3.29034424-4.00598144 3.45697021-7.14746093l.01483155-.61560059.2755127 7.9864502-.01293946.40466308c-.0526123.97436524-.23797608 1.17553711-.26068115 2.16564942 1.66711425 0 2.19470215.25793457 3.9432373.25793457h4.7307129l.00146484-.81970215c.01312255-4.37731934.12805175-20.4699707.85467529-22.07629395 1.94067383-4.2923584 8.14727783-3.94104004 10.31262207-.45153808.7253418 1.16955566.60217285 3.23156738.48321533 5.22229004-.04394531.73571777-.08728027 1.46166992-.08703613 2.12927246.00048828 2.89282226-.06634522 5.58239746-.13275147 8.25378418-.06524658 2.62585449-.13006591 5.23400879-.13006591 8.00012207h8.6729126l.01464843-1.92919922c.02349854-1.61401367.07196045-3.17114258.11987305-4.71069336.0649414-2.08740235.12878418-4.14074707.1282959-6.26013184 0-.74157715-.02172852-1.52575683-.04382325-2.32507324-.1029663-3.71740723-.21490478-7.76184082 1.80609131-9.36218262.48937989-.38696289 1.6161499-.87890625 2.30163574-1.09545898 2.91351319-.9173584 6.00262452.6352539 6.84197998 2.59326172.83666993 1.9486084.67468262 5.40222168.51782227 8.74511718-.06115723 1.30419922-.12158203 2.59155274-.12158203 3.76611329v7.73950195l.01879883.34204101c.29797363 2.64013672 4.0670166 3.01269532 6.28881836 3.01269532h2.10351562l.00793457-.8392334c.015625-.98693848.05273438-2.3635254.0958252-3.96252442.17578125-6.52954101.45141601-16.76403808-.22045899-19.33605957-.60900879-2.33337402-1.25720215-4.29516601-3.48034668-5.87194824-6.78515625-4.8170166-17.34399414-3.71960449-19.79559326-.4342041-4.58758545-3.01586914-7.53936767-3.5789795-13.45666504-2.8897705-3.29302978.3831787-8.3237915 2.52978515-9.79382324 5.86621093-.78063965 1.7722168-1.19348144 2.94567871-1.19348144 5.02111816h-.26281739l-.02276611-3.38208007c-.0065918-2.0402832.01824951-4.27893067.18359375-5.24975586.33166504-1.94006348.28942871-2.22631836-1.49401856-2.23669434l-2.8718872.03222656c-2.7958374 0-4.01086426 1.83959961-4.23345948 4.35876465-.12438964 1.40576172-.15600585 4.03723145-.19042968 6.90283203-.05957032 4.95227051-.1274414 10.60351563-.69708252 11.83459473l-.40307617.63635254c-2.3526001 3.06311035-8.66998291 2.97351074-10.024292-1.24560547-.58288574-1.81542969-.28149414-11.48718262-.08465576-17.8046875.04724121-1.51611328.08843994-2.83898926.10998535-3.81359863l.01586914-1.12658692-6.00854492-.03955078-.3927002-.0522461c-.21405029-.03137206-.40924072-.06420898-.5871582-.09423827-.63391113-.10668946-1.04846191-.17651368-1.31591797-.0098877-.50622558.31530762-.48504638 1.47729492-.42382812 4.83898926.01348877.74072266.02893066 1.58813476.0411377 2.55688476zm-52.08740235.7397461c1.27288819-2.01098633 3.0900879-2.52111817 5.5789795-2.52111817 2.37713622 0 3.62939452 1.44677735 4.63458251 2.93212891 2.71350098 4.00842285 1.8446045 16.41760254-5.16021728 16.41760254-8.40820313 0-7.32159424-13.24182129-5.05334473-16.82861328z"/>
    <path fill="rgb(206,21,41)" fill-rule="evenodd" d="M83.4343872 33.0411377c-.71484374.0283203-1.53723144.06091308-2.50598144.06091308v11.26159668l-.26190185-1.60876465-1.26831055.01062012c-4.66113281.085083-9.4017334.74890137-12.9821167 4.43762207l-.50030518.56030273-.45684814.54333497c-3.73095703 4.69506835-3.69348145 11.3909912-3.65661621 17.97717285l.00219726.40014648.00506592 9.32141113h8.64331055l.0147705-2.24060058c.02337647-1.83251953.0709839-3.59155274.1182251-5.33764649l.00024415-.00805664.0001831-.00769043c.06604004-2.44396972.1314087-4.8626709.128479-7.42248535l.0032959-.60058594c.09881592-7.82678222 2.38977051-8.46801757 7.7800293-8.51379394l2.168396-.00219727c0 7.58178711-.52374268 16.87438965-.52374268 24.40222168h8.90515137l-.07580567-3.38830566c-.0880127-3.8137207-.14239502-9.2647705.55560303-10.06445313.27752686-.31713867.8951416-.63427734 1.3534546-.75939941 1.65844726 1.13635254 3.08569335 3.68017578 4.09344481 5.82739258l.46807862 1.03210449 2.04956055 4.1225586c.29962158.57104492.4753418.81958007.79699707 1.54321288l.97332763 1.95495606 1.50134278.01489258c2.96069336.05603027 5.710083.25231933 8.97418212.25231933l-3.28631591-6.02001953-1.99420166-3.80664062-.31689453-.53051758-2.86413575-5.11254883-.15826416-.29284668c-.75982666-1.38427734-2.42272949-4.18945312-2.64141845-5.1529541l5.07653808-5.52770996.06646729-.06604004 1.0684204-1.16259766c.34710694-.3675537.64337159-.65429687 1.0413208-1.1015625l2.33270264-2.45214843c.80084229-.83789063 1.76281739-1.89123536 1.93768311-2.56140137l-5.24230957.01000976c-.87390137-.00061035-1.74725342-.00427246-2.6192627-.01391601l-.80877685-.00390625c-1.60491943.0192871-2.06365967.32189941-4.09649658 2.83129883l-1.0302124 1.28466797-6.89312745 7.6907959.26190186-17.96594239-.01965332-.2866211c-.10235596-.79260253-.58483887-1.77905273-.9800415-2.17565917-1.4954834-1.49707031-2.6826172-1.44995117-5.13763428-1.35253906zM9.29510499 42.08251953l-.5645752.19152832c-.10461425.03466797-.15057373.0510254-.21270751.08239746l-.51165772.2833252c-.22436523.12243652-.39007568.20861816-.53869629.28259277l-.69354248.33276367c-2.4654541 1.1895752-4.51367187 3.84484864-5.20843506 6.46520996C.38153076 54.1859131.42773438 57.07470703.49157715 61.06506348c.01550293.96960449.03204346 2.00427246.03222656 3.14245605 0 1.44494629-.06744385 2.63793945-.1338501 3.8137207-.06622314 1.17126465-.13146972 2.32543946-.12805175 3.6940918v7.77685547l-.01043702 1.01000977C.2027588 82.77026367 0 84.48217773 0 87l.95788574-.0008545c7.04180908-.01745605 7.66796875-.37915038 7.68878174-7.68933105l-.01019287-3.31030273c-.00384522-.95141602.06158447-1.68762207.12890625-2.44396973.06896973-.7755127.13983154-1.5723877.13983154-2.64465332.23156739.27319336.45336914.53430176.71038819.88049317.31365966.42114257.43780517.69335937.79644775 1.0625 2.88171387 2.97045898 9.05761719 3.8149414 13.3015747 1.42077636 1.64556885-.92749023 2.5475464-1.74389648 3.73284913-3.15063476.63128662-.74938965.91369629-1.22766114 1.36517334-2.0880127l.22845459-.41674804c.32653808-.57983399.72039795-1.24584961.93536377-1.87744141l.87860107-3.09204102c.24005127-.86401367.31262207-1.4666748.31262207-2.6607666h.26190186l.01605224.53918457c.1050415 1.86901856.7060547 4.39013672 1.2142334 5.70983887.38208008.99060059.6605835 1.74487305 1.17163086 2.55432129.26971436.42626953.47393799.72436523.7602539 1.09960937l.13024903.17553711.22155762.26867676 1.51855469 1.39465332.57653808.51306152c.45220947.38842774.87780762.6920166 1.60650635 1.0057373 5.42053223 2.33410645 11.9364624 2.6772461 16.6621704-.8795166l1.65930177-1.51977538.11938476-.11621094c.0777588-.0723877.0982666-.0822754.11376953-.08959961.00860596-.0041504.015625-.00744629.02990723-.02026367l.26947022-.30114746c.53649902-.62231446 1.11889648-1.66381836 1.54693603-2.43823242 2.7185669-4.92443848 2.98046875-14.35217286.80426025-19.02746582l-1.36224365-2.6282959-.37145996-.52783203c-1.36425781-1.85644532-2.77105713-2.87683106-4.83306885-4.06445313-3.67913818-2.11914062-11.32373047-1.95898437-15.0859375.61230469-.31469726.21533203-.42999267.3116455-.64910888.4642334l-.77978516.51611328c-.80065918.5628662-.91259766.90588379-1.78118896 1.90100097l-.1651001.19604493-.30499268.3942871c-1.03186035 1.4107666-1.9777832 3.39575196-2.32861328 5.12451172l-.75927734 2.9765625-.13458252-.60144043c-.53936768-2.4522705-.54388428-2.9868164-1.36322022-4.96643066l-.440979-1.02844238c-.99969483-2.27319336-2.00909424-3.4506836-3.96350098-4.79040528l-2.2074585-1.22558593-.69836425-.289917c-4.22729492-1.63098144-9.10388184-1.31860351-13.32537842.1628418zm3.54431152 6.84643555c1.8595581-1.06542969 4.53027344-.95336914 6.41333008.12512207.12451172.07092285.4472046.32373047.72717285.55151367l.45617676.38293457c1.73065186 1.586792 2.48699951 5.43676758 2.56030274 8.0760498.11334228 4.09204102-1.8215332 10.16503907-7.02020264 10.16503907-.4152832 0-2.58563233-.54919434-2.96185303-.72131348-5.05212402-2.31213379-5.39904785-15.58581543-.17492676-18.5793457zm36.84161377.72717285l-.24176025-.1348877c-2.12243652-1.23461914-3.909729-1.04846191-6.14752197.01696778-.29901123.14257812-.62884522.34375-.8838501.54345703l-.38604736.35119629-.19689942.28503418c-2.0316162 2.7911377-2.02496338 5.42602539-2.01696777 8.58984375.00054931.2006836.0010376.40356445.0010376.60876465 0 2.2080078.84429931 5.46862793 1.78240966 6.75634765 1.48144532 2.03100586 5.93450928 3.82385254 9.37127686-.43225097 2.43225098-3.01245118 3.18078613-13.1505127-1.04656982-16.40319825l-.23510743-.18127441z"/>
    <path fill="rgb(20,105,55)" fill-rule="evenodd" d="M140.44378662 1.77783203C134.23876953.17346191 127.2487793-.29589844 120.8840332.17260743c-1.26861572.09423827-1.95489502.48217773-3.42834472.51464843-2.2411499.04907226-1.57348633.25732422-3.30383301.63842773l-3.01367188.66601563-.67456054.10546875c-.0826416.01342773-.13647461.02368164-.19335938.038208l-.63494873.19323731-4.52636719 1.51953125-.7024536.22302246c-4.78375245 1.6040039-11.4971924 5.4963379-14.94714356 8.31774903-.18231202.14904785-.2633667.22290039-.3515625.30004882l-3.54931641 2.90014649-.42962647.38391113c-.56091308.52539063-1.04089355 1.12792969-1.04089355 2.0913086 0 1.06677246.19604492 1.68066406.87548828 2.28186035l.21307373.19995117c.0111084.00915527.02270508.01708984.03955078.02685547l.20227051.10620117c1.5578003.81896973 2.6939087.0180664 3.76629639-.98413086l.9119873-.87536621 9.12524414-6.38952637 5.47338867-2.67663574 1.26733399-.51513672c6.7647705-2.65930176 13.6262207-3.91223144 20.9644165-3.8215332 3.57537842.04418945 10.07617188.72875976 13.4633789 1.77978515l9.1673584 3.45166016.20788575.0913086c.2196045.09179687.24719238.08374023.54211426.21020507l3.68713379 2.09814453.75750732.46569825c.50457764.29589843 1.01171875.57556152 1.54241943.91540527 2.89898682 1.85351562 5.70672608 4.18041992 8.1694336 6.55749512 1.1303711 1.09228515 1.74401855 2.07946777 3.4420166 2.07946777 2.6126709 0 3.01660156-3.0567627 1.48132324-4.64318848-.20977783-.21704101-.31365967-.3260498-.51074219-.5411377l-.99603271-1.10803222-4.25384522-3.63635254-.14898681-.11291504-10.43304443-6.65966797-.85821534-.45239257c-.85943603-.42871094-1.72479248-.79211426-2.61767578-1.1480713l-1.9855957-.77844238-1.99127197-.68481445-.43798829-.11560059-.36004638-.13781738-3.03320313-.90856933-1.31713867-.36120606zm34.29467774 26.28979492l1.0512085-.00439453c1.3965454.01721192 1.6786499.29797363 3.09674071 2.95703125.13201905.24890137.23657227.47241211.34997559.69970703l.18133545.34741211.39215088.66015625.0892334.17382813c2.20184326 4.5238037-2.44610596 5.55957031-4.12988282 3.66381836l-.140625-.17492676-.70483398-1.3996582c-1.0637207-2.38000489-2.0244751-2.13342286-2.0244751-4.81604004 0-.67993164.09490967-.90527344.37231446-1.18444825l.2845459-.2644043c.35882568-.32409667.71856689-.65808105 1.182312-.65808105zm7.2468872 54.33459473c-.44805908-2.43408203-3.87738037-2.9399414-5.0371704-.78393555l-5.51257325 10.00927735-.96807861 1.31433105c-2.88104248 3.82824707-6.03894043 7.17773438-9.78753662 10.28710938l-.14215088.12072754-3.96557617 2.87219238-.45440674.32177734-.51611328.28430176-9.56445313 4.89746094-8.90466309 2.66101074-.74536132.19042969c-2.83276368.6595459-6.71368409.8939209-9.996521.8939209-4.94787598 0-9.51348877-.61486817-14.26037598-1.7709961l-4.6175537-1.42822265-.28649903-.0826416c-.74798584-.24035645-.57598877-.42211915-1.73895264-.78369141-.72351074-.22497559-.71759033-.19641114-1.34698486-.493042l-2.59246826-1.20605468c-1.44213867-.68701172-2.85766602-1.42883301-4.09655762-2.35961914l-.30493164-.22094727-.65454102-.42236328c-2.48883056-1.60998535-3.48303222-2.31091309-5.14190673-3.61499023l-2.5758667-2.05358887c-.84307862-.67492676-.9607544-1.15612793-1.80090332-1.88110352l-1.06958008-.7709961-.26898194-.14355468c-.99224853-.4819336-2.04241943-.46569824-2.89074707.3527832-.9666748.93115235-1.21075439 1.95556641-.64703369 3.07836915.65386963 1.30151367 2.64990235 3.05969238 3.83514405 4.05566406l1.15783691.94494629 14.35546875 9.04760742.16571045.09729004 4.3067627 1.73950195 1.13775634.30944824c3.37145996.95031739 6.40356446 2.06091309 10.1305542 2.35351563C121.4369507 120.55297852 122.76928711 121 127.70446777 121c3.68127442 0 11.77026368-1.09033203 15.05151368-2.29553223l2.23815917-.6541748.20709229-.09887695c.2341919-.11743164.33331299-.1862793.690979-.3166504l2.18225098-.70922851.2390747-.09741211c.40039063-.17260742.38360596-.22521973.82562257-.41625977l9.0458374-4.62646484.14996338-.11291504 5.7312622-3.99780273.15289307-.11096192 9.01641846-9.13012695.37133789-.4724121c1.27600098-1.6414795 1.64923096-2.32824708 2.32446289-3.3770752l.64434814-.96557618 3.91455078-6.87182617.10809327-.20715332c.48382568-.95324707 1.53814697-3.31860351 1.38702392-4.1373291zm-105.08044433 3.0411377c-.80310059-1.41479493-.54827881-1.82702637-3.32745362-1.82702637-.63232422 0-1.57641601.94592285-1.57641601 1.57946777L72 86.66845703c.0145874 1.57653809.18139648.76782227 1.57550049 3.79516602 1.81665039 3.94677734 5.78222656 2.77197265 5.78222656-.26611328l-1.9911499-4.05969239-.32550049-.46264648-.13616943-.23181152z"/>
  </g>
</svg>
