<?xml version="1.0" encoding="UTF-8"?>
<svg width="32px" height="30px" viewBox="0 0 32 30" version="1.1" xmlns="http://www.w3.org/2000/svg" xmlns:xlink="http://www.w3.org/1999/xlink">
    <!-- Generator: Sketch 55.1 (78136) - https://sketchapp.com -->
    <title>Star</title>
    <desc>Created with Sketch.</desc>
    <g id="Page-1" stroke="none" stroke-width="1" fill="none" fill-rule="evenodd">
        <g id="A" transform="translate(-876.000000, -1803.000000)" fill="#F05A24" fill-rule="nonzero">
            <g id="Group-5-Copy" transform="translate(876.000000, 1803.000000)">
                <g id="Star">
                    <g id="Layer_1" transform="translate(0.405221, 0.432259)">
                        <path d="M16.9169462,0.959123377 L20.5320651,8.25376623 C20.7362786,8.66581793 21.1309991,8.95139843 21.5875845,9.01743506 L29.6700876,10.1873701 C30.1982428,10.2637585 30.6370224,10.6322266 30.801859,11.1377828 C30.9666956,11.6433389 30.8289869,12.1982594 30.4466583,12.5691234 L24.5971464,18.2470779 C24.2663329,18.5681818 24.1163454,19.0302922 24.1934418,19.4826299 L25.5741677,27.5004545 C25.6642705,28.0242025 25.4480349,28.5534835 25.0163697,28.8657797 C24.5847045,29.1780759 24.0124634,29.2192331 23.5402253,28.9719481 L16.3099875,25.1857143 C15.901385,24.9722165 15.4135587,24.9722165 15.0049562,25.1857143 L7.7747184,28.9719481 C7.30248023,29.2192331 6.73023923,29.1780759 6.298574,28.8657797 C5.86690877,28.5534835 5.65067321,28.0242025 5.74077597,27.5004545 L7.12150188,19.4826299 C7.19953459,19.0296888 7.04852971,18.5675331 6.71779725,18.2470779 L0.868285357,12.5691234 C0.485956805,12.1982594 0.348248053,11.6433389 0.513084652,11.1377828 C0.677921252,10.6322266 1.11670087,10.2637585 1.64485607,10.1873701 L9.7273592,9.01743506 C10.1839445,8.95139843 10.5786651,8.66581793 10.7828786,8.25376623 L14.3979975,0.959123377 C14.9166458,-0.0781818182 16.4025031,-0.0781818182 16.9169462,0.959123377 Z" id="Path"></path>
                    </g>
                </g>
            </g>
        </g>
    </g>
</svg>